<?xml version="1.0" ?><!DOCTYPE svg  PUBLIC '-//W3C//DTD SVG 1.1//EN'  'http://www.w3.org/Graphics/SVG/1.1/DTD/svg11.dtd'><svg height="100%" style="fill-rule:evenodd;clip-rule:evenodd;stroke-linejoin:round;stroke-miterlimit:2;" version="1.1" viewBox="0 0 512 512" width="100%" xml:space="preserve" xmlns="http://www.w3.org/2000/svg" xmlns:serif="http://www.serif.com/" xmlns:xlink="http://www.w3.org/1999/xlink"><g id="Layer_1-2"><path d="M76.351,247.022l-31.439,0l0,8.978l31.439,0l0,35.935l-49.404,0l-17.965,-17.965l0,-94.321l35.93,0l0,31.439l31.439,0l0,35.934Z" style="fill:#fff;fill-rule:nonzero;"/><path d="M211.088,291.935l-107.79,0l-17.965,-17.965l0,-62.882l35.93,0l0,44.912l8.983,0l0,-44.912l35.93,0l0,44.912l8.982,0l0,-44.912l35.93,0l0,80.847Z" style="fill:#fff;fill-rule:nonzero;"/><rect height="80.842" style="fill:#fff;" width="35.93" x="220.07" y="211.088"/><rect height="22.456" style="fill:#fff;" width="35.93" x="220.07" y="179.649"/><path d="M332.351,247.022l-31.439,0l0,8.978l31.439,0l0,35.935l-49.404,0l-17.964,-17.965l0,-94.321l35.929,0l0,31.439l31.439,0l0,35.934Z" style="fill:#fff;fill-rule:nonzero;"/><path d="M413.193,247.022l-35.93,0l0,8.978l35.93,0l0,35.935l-53.895,0l-17.965,-17.965l0,-44.913l17.965,-17.969l53.895,0l0,35.934Z" style="fill:#fff;fill-rule:nonzero;"/><path d="M503.018,291.935l-35.93,0l0,-44.913l-8.983,0l0,44.913l-35.929,0l0,-112.286l35.929,0l0,31.439l26.948,0l17.965,17.969l0,62.878Z" style="fill:#fff;fill-rule:nonzero;"/><path d="M489.544,202.106l-22.456,0l0,-31.439l-49.309,0l-22.677,31.439l-40.295,0l-13.474,13.473l0,-13.473l-31.438,0l0,-31.439l-98.807,0l0,31.439l-139.004,0l-22.68,-31.439l-49.404,0l0,107.79l62.877,62.877l62.877,0l0,-17.965l17.965,17.965l121.264,0l0,-17.965l17.964,17.965l58.386,0l0,-17.965l17.965,17.965l112.281,0l40.421,-40.421l0,-76.351l-22.456,-22.456Zm-413.193,44.912l-31.439,0l0,8.982l31.439,0l0,35.93l-49.404,0l-17.965,-17.965l0,-94.316l35.93,0l0,31.439l31.439,0l0,35.93Zm134.737,44.912l-107.79,0l-17.965,-17.965l0,-62.877l35.93,0l0,44.912l8.983,0l0,-44.912l35.93,0l0,44.912l8.982,0l0,-44.912l35.93,0l0,80.842Zm44.912,0l-35.93,0l0,-80.842l35.93,0l0,80.842Zm0,-89.824l-35.93,0l0,-22.457l35.93,0l0,22.457Zm76.351,44.912l-31.439,0l0,8.982l31.439,0l0,35.93l-49.404,0l-17.964,-17.965l0,-94.316l35.929,0l0,31.439l31.439,0l0,35.93Zm80.842,0l-35.93,0l0,8.982l35.93,0l0,35.93l-53.895,0l-17.965,-17.965l0,-44.912l17.965,-17.965l53.895,0l0,35.93Zm89.825,44.912l-35.93,0l0,-44.912l-8.983,0l0,44.912l-35.929,0l0,-112.281l35.929,0l0,31.439l26.948,0l17.965,17.965l0,62.877Z" style="fill:#9146ff;fill-rule:nonzero;"/></g></svg>